HIERARCHY
ROOT hip
{
  OFFSET 0 0 0
  CHANNELS 6 Xposition Yposition Zposition Zrotation Yrotation Xrotation
  JOINT abdomen
  {
    OFFSET 0 20.6881 -0.73152
    CHANNELS 3 Zrotation Xrotation Yrotation
    JOINT chest
    {
      OFFSET 0 11.7043 -0.48768
      CHANNELS 3 Zrotation Xrotation Yrotation
      JOINT neck
      {
        OFFSET 0 22.1894 -2.19456
        CHANNELS 3 Zrotation Xrotation Yrotation
        JOINT head
        {
          OFFSET -0.24384 7.07133 1.2192
          CHANNELS 3 Zrotation Xrotation Yrotation
          JOINT leftEye
          {
            OFFSET 4.14528 8.04674 8.04672
            CHANNELS 3 Zrotation Xrotation Yrotation
            End Site
            {
              OFFSET 1 0 0
            }
          }
          JOINT rightEye
          {
            OFFSET -3.6576 8.04674 8.04672
            CHANNELS 3 Zrotation Xrotation Yrotation
            End Site
            {
              OFFSET 1 0 0
            }
          }
        }
      }
      JOINT rCollar
      {
        OFFSET -2.68224 19.2634 -4.8768
        CHANNELS 3 Zrotation Xrotation Yrotation
        JOINT rShldr
        {
          OFFSET -8.77824 -1.95073 1.46304
          CHANNELS 3 Zrotation Xrotation Yrotation
          JOINT rForeArm
          {
            OFFSET -28.1742 -1.7115 0.48768
            CHANNELS 3 Zrotation Xrotation Yrotation
            JOINT rHand
            {
              OFFSET -22.5879 0.773209 7.07136
              CHANNELS 3 Zrotation Xrotation Yrotation
              JOINT rThumb1
              {
                OFFSET -1.2192 -0.487915 3.41376
                CHANNELS 3 Zrotation Xrotation Yrotation
                JOINT rThumb2
                {
                  OFFSET -3.37035 -0.52449 3.41376
                  CHANNELS 3 Zrotation Xrotation Yrotation
                  End Site
                  {
                    OFFSET -1.78271 -1.18214 1.43049
                  }
                }
              }
              JOINT rIndex1
              {
                OFFSET -7.75947 0.938293 5.60832
                CHANNELS 3 Zrotation Xrotation Yrotation
                JOINT rIndex2
                {
                  OFFSET -2.54057 -0.884171 1.56538
                  CHANNELS 3 Zrotation Xrotation Yrotation
                  End Site
                  {
                    OFFSET -1.62519 -0.234802 1.16502
                  }
                }
              }
              JOINT rMid1
              {
                OFFSET -8.24714 1.18213 3.41376
                CHANNELS 3 Zrotation Xrotation Yrotation
                JOINT rMid2
                {
                  OFFSET -3.10165 -0.590103 1.0647
                  CHANNELS 3 Zrotation Xrotation Yrotation
                  End Site
                  {
                    OFFSET -2.48547 -0.328903 0.83742
                  }
                }
              }
              JOINT rRing1
              {
                OFFSET -8.82822 0.546677 1.51678
                CHANNELS 3 Zrotation Xrotation Yrotation
                JOINT rRing2
                {
                  OFFSET -2.60934 -0.819778 -0.0198488
                  CHANNELS 3 Zrotation Xrotation Yrotation
                  End Site
                  {
                    OFFSET -2.33842 -0.294052 0.168128
                  }
                }
              }
              JOINT rPinky1
              {
                OFFSET -8.27202 -0.0477905 -0.4584
                CHANNELS 3 Zrotation Xrotation Yrotation
                JOINT rPinky2
                {
                  OFFSET -1.82734 -0.647385 -0.700984
                  CHANNELS 3 Zrotation Xrotation Yrotation
                  End Site
                  {
                    OFFSET -1.69225 -0.51767 -0.607171
                  }
                }
              }
            }
          }
        }
      }
      JOINT lCollar
      {
        OFFSET 2.68224 19.2634 -4.8768
        CHANNELS 3 Zrotation Xrotation Yrotation
        JOINT lShldr
        {
          OFFSET 8.77824 -1.95073 1.46304
          CHANNELS 3 Zrotation Xrotation Yrotation
          JOINT lForeArm
          {
            OFFSET 28.1742 -1.7115 0.48768
            CHANNELS 3 Zrotation Xrotation Yrotation
            JOINT lHand
            {
              OFFSET 22.5879 0.773209 7.07136
              CHANNELS 3 Zrotation Xrotation Yrotation
              JOINT lThumb1
              {
                OFFSET 1.2192 -0.487915 3.41376
                CHANNELS 3 Zrotation Xrotation Yrotation
                JOINT lThumb2
                {
                  OFFSET 3.37035 -0.52449 3.41376
                  CHANNELS 3 Zrotation Xrotation Yrotation
                  End Site
                  {
                    OFFSET 1.78271 -1.18214 1.43049
                  }
                }
              }
              JOINT lIndex1
              {
                OFFSET 7.75947 0.938293 5.60832
                CHANNELS 3 Zrotation Xrotation Yrotation
                JOINT lIndex2
                {
                  OFFSET 2.54057 -0.884171 1.56538
                  CHANNELS 3 Zrotation Xrotation Yrotation
                  End Site
                  {
                    OFFSET 1.62519 -0.234802 1.16502
                  }
                }
              }
              JOINT lMid1
              {
                OFFSET 8.24714 1.18213 3.41376
                CHANNELS 3 Zrotation Xrotation Yrotation
                JOINT lMid2
                {
                  OFFSET 3.10165 -0.590103 1.0647
                  CHANNELS 3 Zrotation Xrotation Yrotation
                  End Site
                  {
                    OFFSET 2.48547 -0.328903 0.83742
                  }
                }
              }
              JOINT lRing1
              {
                OFFSET 8.82822 0.546677 1.51678
                CHANNELS 3 Zrotation Xrotation Yrotation
                JOINT lRing2
                {
                  OFFSET 2.60934 -0.819778 -0.0198488
                  CHANNELS 3 Zrotation Xrotation Yrotation
                  End Site
                  {
                    OFFSET 2.33842 -0.294052 0.168128
                  }
                }
              }
              JOINT lPinky1
              {
                OFFSET 8.27202 -0.0477905 -0.4584
                CHANNELS 3 Zrotation Xrotation Yrotation
                JOINT lPinky2
                {
                  OFFSET 1.82734 -0.647385 -0.700984
                  CHANNELS 3 Zrotation Xrotation Yrotation
                  End Site
                  {
                    OFFSET 1.69225 -0.51767 -0.607171
                  }
                }
              }
            }
          }
        }
      }
    }
  }
  JOINT rButtock
  {
    OFFSET -8.77824 4.35084 1.2192
    CHANNELS 3 Zrotation Xrotation Yrotation
    JOINT rThigh
    {
      OFFSET 0 -1.70687 -2.19456
      CHANNELS 3 Zrotation Xrotation Yrotation
      JOINT rShin
      {
        OFFSET 0 -36.8199 0.73152
        CHANNELS 3 Zrotation Xrotation Yrotation
        JOINT rFoot
        {
          OFFSET 0.73152 -45.1104 -5.12064
          CHANNELS 3 Zrotation Xrotation Yrotation
          End Site
          {
            OFFSET -1.1221 -3.69964 12.103
          }
        }
      }
    }
  }
  JOINT lButtock
  {
    OFFSET 8.77824 4.35084 1.2192
    CHANNELS 3 Zrotation Xrotation Yrotation
    JOINT lThigh
    {
      OFFSET 0 -1.70687 -2.19456
      CHANNELS 3 Zrotation Xrotation Yrotation
      JOINT lShin
      {
        OFFSET 0 -36.8199 0.73152
        CHANNELS 3 Zrotation Xrotation Yrotation
        JOINT lFoot
        {
          OFFSET -0.73152 -45.1104 -5.12064
          CHANNELS 3 Zrotation Xrotation Yrotation
          End Site
          {
            OFFSET 1.1221 -3.69964 12.103
          }
        }
      }
    }
  }
}
MOTION
Frames:	6
Frame Time:	0.00833333
-0.0407 59.1117 1.04522 -1.1718 -49.6692 -0.6343 -7.22935 12.3771 17.7494 -4.73629 -11.0725 4.3494 -1.46645 9.56155 7.10442 5.86309 -18.675 15.1738 -0.0 0.0 0.0 -0.0 0.0 0.0 0.0 -0.0 0.0 42.2314 75.8157 30.843498 -26.0379 -46.1107 95.9273 -34.0744 -77.7373 -41.2636 -0.0 0.0 -0.0 -0.0 0.0 -0.0 -0.0 0.0 -0.0 7.73091 5.47488 0.417314 -0.0 0.0 -0.0 2.90554 0.965183 0.102902 -0.0 0.0 -0.0 10.2786 0.731801 0.025912 -0.0 0.0 -0.0 2.22167 -0.733487 -0.20892 0.0 -0.0 0.0 -61.4864 16.829 -32.8151 28.2677 -39.3121 -82.3296 0.082172 1.45332 -0.221367 -0.0 0.0 -0.0 -0.0 0.0 -0.0 -0.0 0.0 -0.0 -7.73091 5.47488 -0.417314 -0.0 0.0 -0.0 -2.90554 0.965183 -0.102902 -0.0 0.0 -0.0 -10.2786 0.731801 -0.025912 -0.0 0.0 -0.0 -2.22167 -0.733487 0.20892 -0.0 0.0 -0.0 -16.021 -36.2586 -25.5471 -3.1178 76.4899 4.3825 -8.99303 -26.7782 -18.5283 0.0 0.0 0.0 45.3379 -44.0558 39.835 0.541474 45.806 0.097292 -5.81641 27.1291 13.0836
-0.0797 58.83 2.02713 -0.777 -50.8804 -1.2673 -7.10469 12.426 18.3199 -5.25031 -10.8862 4.4497 -1.37907 9.69957 7.31804 5.72502 -18.2548 15.521701 -0.0 0.0 0.0 -0.0 0.0 0.0 0.0 -0.0 0.0 50.2423 75.5402 22.2416 -26.1471 -45.949 95.4926 -50.078 -80.5077 -57.6608 0.0 0.0 -0.0 0.0 0.0 -0.0 0.0 0.0 -0.0 7.73091 5.47488 0.417314 0.0 0.0 -0.0 2.90554 0.965183 0.102902 0.0 0.0 -0.0 10.2786 0.731801 0.025912 0.0 0.0 -0.0 2.22167 -0.733487 -0.20892 0.0 -0.0 0.0 -63.1276 15.3443 -31.7268 28.396 -37.9536 -80.0627 0.045605 2.50309 -0.359609 0.0 0.0 -0.0 0.0 0.0 -0.0 0.0 0.0 -0.0 -7.73091 5.47488 -0.417314 0.0 0.0 -0.0 -2.90554 0.965183 -0.102902 0.0 0.0 -0.0 -10.2786 0.731801 -0.025912 0.0 0.0 -0.0 -2.22167 -0.733487 0.20892 -0.0 0.0 -0.0 -17.0061 -35.9153 -25.4392 -3.33139 77.2325 4.6486 -8.99006 -27.2201 -18.3285 0.0 0.0 0.0 45.2273 -42.8522 39.3837 0.534389 45.9655 0.022144 -5.45841 26.7764 12.2445
-0.1166 58.5023 2.948251 -0.349 -51.8916 -1.9371 -7.05244 12.5283 18.6713 -5.55645 -10.7905 4.50263 -1.29183 9.8309 7.50188 5.66622 -18.0199 15.8388 -0.0 0.0 0.0 -0.0 0.0 0.0 0.0 0.0 0.0 55.2474 75.3483 16.6877 -26.2373 -45.7991 95.1214 -63.861797 -81.5787 -71.6773 0.0 0.0 -0.0 0.0 0.0 -0.0 0.0 0.0 -0.0 7.73091 5.47488 0.417314 0.0 0.0 -0.0 2.90554 0.965183 0.102902 0.0 0.0 -0.0 10.2786 0.731801 0.025912 0.0 0.0 -0.0 2.22167 -0.733487 -0.20892 0.0 0.0 0.0 -64.2065 14.2083 -30.7848 28.4078 -36.8509 -78.4427 0.019962 4.03013 -0.567343 0.0 -0.0 -0.0 0.0 -0.0 -0.0 0.0 -0.0 -0.0 -7.73091 5.47488 -0.417314 0.0 -0.0 -0.0 -2.90554 0.965183 -0.102902 0.0 -0.0 -0.0 -10.2786 0.731801 -0.025912 0.0 -0.0 -0.0 -2.22167 -0.733487 0.20892 -0.0 0.0 -0.0 -17.913 -35.6314 -25.3736 -3.5675 78.0036 4.95289 -9.099 -27.606 -18.3519 0.0 0.0 0.0 45.2824 -41.895 39.3367 0.538084 46.385 -0.050723 -4.95366 26.1607 11.2005
-0.1501 58.1366 3.81256 0.0826 -52.6903 -2.6065 -7.1462 12.7184 18.7457 -5.59171 -10.819 4.49249 -1.19348 9.93788 7.65726 5.71465 -17.9961 16.1346 -0.0 0.0 0.0 -0.0 0.0 0.0 -0.0 0.0 0.0 56.5927 75.6349 14.8867 -26.317 -45.6384 94.7753 -63.3453 -81.5281 -71.1497 0.0 0.0 -0.0 0.0 0.0 -0.0 0.0 0.0 -0.0 7.73091 5.47488 0.417314 0.0 0.0 -0.0 2.90554 0.965183 0.102902 0.0 0.0 -0.0 10.2786 0.731801 0.025912 0.0 0.0 -0.0 2.22167 -0.733487 -0.20892 -0.0 0.0 0.0 -64.5965 13.5428 -29.921902 28.3919 -36.1819 -77.4829 0.024686 6.34306 -0.891415 0.0 0.0 -0.0 0.0 0.0 -0.0 0.0 0.0 -0.0 -7.73091 5.47488 -0.417314 0.0 0.0 -0.0 -2.90554 0.965183 -0.102902 0.0 0.0 -0.0 -10.2786 0.731801 -0.025912 0.0 0.0 -0.0 -2.22167 -0.733487 0.20892 -0.0 0.0 -0.0 -18.7445 -35.4327 -25.3041 -3.84813 78.8421 5.32409 -9.36185 -27.9304 -18.664 0.0 0.0 0.0 45.4879 -41.2048 39.7811 0.556622 47.1433 -0.124437 -4.22664 25.166 9.76796
-0.1808 57.7452 4.621361 0.4503 -53.2719 -3.2026 -7.32671 12.9931 18.5868 -5.43141 -10.9487 4.42722 -1.0954 10.0428 7.79581 5.84821 -18.1205 16.4235 -0.0 0.0 0.0 -0.0 0.0 0.0 -0.0 0.0 -0.0 54.8828 76.3746 16.2707 -26.4254 -45.4072 94.2907 -49.072 -80.4493 -56.7036 0.0 -0.0 0.0 0.0 -0.0 0.0 0.0 -0.0 0.0 7.73091 5.47488 0.417314 0.0 -0.0 0.0 2.90554 0.965183 0.102902 0.0 -0.0 0.0 10.2786 0.731801 0.025912 0.0 -0.0 0.0 2.22167 -0.733487 -0.20892 -0.0 0.0 -0.0 -64.3433 13.313 -29.2572 28.3998 -35.8384 -76.892 0.078988 9.68928 -1.36874 -0.0 0.0 0.0 -0.0 0.0 0.0 -0.0 0.0 0.0 -7.73091 5.47488 -0.417314 -0.0 0.0 0.0 -2.90554 0.965183 -0.102902 -0.0 0.0 0.0 -10.2786 0.731801 -0.025912 -0.0 0.0 0.0 -2.22167 -0.733487 0.20892 -0.0 0.0 -0.0 -19.5131 -35.3114 -25.1943 -4.2049 79.7497 5.7895 -9.73151 -28.2044 -19.1698 0.0 0.0 0.0 45.78 -40.7304 40.5808 0.593609 48.2707 -0.210445 -3.33215 23.7859 7.95045
-0.2081 57.3454 5.374561 0.6628 -53.6442 -3.6309 -7.46772 13.2813 18.2917 -5.16016 -11.1207 4.33624 -1.01347 10.169 7.90564 6.03286 -18.3798 16.6766 -0.0 0.0 0.0 -0.0 0.0 0.0 -0.0 0.0 -0.0 51.7409 77.2194 19.1363 -26.5155 -45.203 93.8748 -35.8902 -78.4289 -43.3018 -0.0 -0.0 0.0 -0.0 -0.0 0.0 -0.0 -0.0 0.0 7.73091 5.47488 0.417314 -0.0 -0.0 0.0 2.90554 0.965183 0.102902 -0.0 -0.0 0.0 10.2786 0.731801 0.025912 -0.0 -0.0 0.0 2.22167 -0.733487 -0.20892 -0.0 0.0 -0.0 -63.791897 13.3249 -28.786503 28.422 -35.673 -76.5153 0.19365 13.1866 -1.88249 -0.0 0.0 0.0 -0.0 0.0 0.0 -0.0 0.0 0.0 -7.73091 5.47488 -0.417314 -0.0 0.0 0.0 -2.90554 0.965183 -0.102902 -0.0 0.0 0.0 -10.2786 0.731801 -0.025912 -0.0 0.0 0.0 -2.22167 -0.733487 0.20892 -0.0 0.0 -0.0 -20.2002 -35.2157 -25.1722 -4.6253 80.6373 6.32481 -10.1646 -28.4251 -19.7986 0.0 0.0 0.0 46.1767 -40.4593 41.5599 0.643982 49.5674 -0.298281 -2.51867 22.2539 6.21342
